<svg width="40" height="40" viewBox="0 0 40 40" fill="none" xmlns="http://www.w3.org/2000/svg">
  <path d="M6 8H34V36H6V8ZM8 10V34H32V10H8Z" fill="#333333"/>
  <path d="M12 12H28V32H12V12ZM14 14V30H26V14H14Z" fill="#333333"/>
  <path d="M16 16H24V20H16V16Z" fill="#333333"/>
  <path d="M16 22H24V26H16V22Z" fill="#333333"/>
  <path d="M18 28H22V30H18V28Z" fill="#333333"/>
  <path d="M17 4H23V8H17V4Z" fill="#333333"/>
  <path d="M15 6H25V8H15V6Z" fill="#333333"/>
  <circle cx="20" cy="18" r="1" fill="#333333"/>
  <circle cx="20" cy="24" r="1" fill="#333333"/>
</svg>