<svg width="40" height="40" viewBox="0 0 40 40" fill="none" xmlns="http://www.w3.org/2000/svg">
  <path d="M4 12H36V36H4V12ZM6 14V34H34V14H6Z" fill="#333333"/>
  <path d="M8 16H32V20H8V16Z" fill="#333333"/>
  <path d="M12 22H16V34H12V22Z" fill="#333333"/>
  <path d="M20 22H24V34H20V22Z" fill="#333333"/>
  <path d="M28 22H32V34H28V22Z" fill="#333333"/>
  <path d="M18 4H22V12H18V4Z" fill="#333333"/>
  <path d="M16 8H24V10H16V8Z" fill="#333333"/>
  <path d="M14 18H18V20H14V18Z" fill="#333333"/>
  <path d="M22 18H26V20H22V18Z" fill="#333333"/>
</svg>