<svg width="40" height="40" viewBox="0 0 40 40" fill="none" xmlns="http://www.w3.org/2000/svg">
  <path d="M20 4L8 12L20 20L32 12L20 4ZM20 17.17L12 11.83L20 6.83L28 11.83L20 17.17Z" fill="#333333"/>
  <path d="M12 14L8 16V32L20 36L32 32V16L28 14L20 18L12 14ZM28 30.17L20 33.17L12 30.17V17.83L18 20.83L20 21.83L22 20.83L28 17.83V30.17Z" fill="#333333"/>
  <path d="M19 10H21V12H19V10Z" fill="#333333"/>
  <path d="M19 24H21V26H19V24Z" fill="#333333"/>
  <path d="M15 16H17V18H15V16Z" fill="#333333"/>
  <path d="M23 16H25V18H23V16Z" fill="#333333"/>
</svg>